<?xml version="1.0" encoding="UTF-8"?>
<svg id="_레이어_2" data-name="레이어 2" xmlns="http://www.w3.org/2000/svg" viewBox="0 0 198.74 80.79">
  <defs>
    <style>
      .cls-1 {
        fill: none;
      }

      .cls-2 {
        fill: #e61d53;
      }
    </style>
  </defs>
  <g id="_레이어_1-2" data-name="레이어 1">
    <g>
      <rect class="cls-1" width="198.74" height="80.79"/>
      <g>
        <path class="cls-2" d="M17.17,62.2L0,18.64h18.41l10.09,37.09h-7.61l9.92-37.09h18.32l-17.09,43.47-14.87.09ZM7.7,80.79l12.66-28.59,11.69,9.92-7.35,18.68H7.7Z"/>
        <path class="cls-2" d="M73.92,63.26c-4.78,0-9.04-.99-12.79-2.97-3.75-1.98-6.7-4.71-8.85-8.19-2.16-3.48-3.23-7.41-3.23-11.77s1.06-8.26,3.19-11.69c2.12-3.42,5.06-6.12,8.81-8.1,3.75-1.98,8.01-2.97,12.79-2.97s9.03.99,12.75,2.97c3.72,1.98,6.65,4.68,8.81,8.1,2.15,3.42,3.23,7.32,3.23,11.69s-1.06,8.29-3.19,11.77c-2.12,3.48-5.05,6.21-8.76,8.19-3.72,1.98-7.97,2.97-12.75,2.97ZM73.83,48.04c1.47,0,2.76-.31,3.85-.93,1.09-.62,1.93-1.5,2.52-2.66.59-1.15.89-2.49.89-4.03s-.31-2.88-.93-4.03c-.62-1.15-1.46-2.04-2.52-2.66-1.06-.62-2.33-.93-3.81-.93s-2.67.33-3.76.97c-1.09.65-1.95,1.55-2.57,2.7-.62,1.15-.93,2.49-.93,4.03s.31,2.79.93,3.94c.62,1.15,1.47,2.04,2.57,2.66,1.09.62,2.35.93,3.76.93Z"/>
        <path class="cls-2" d="M115.79,62.2l-17.09-43.56h18.41l10,37.09h-6.29l9.92-37.09h18.33l-17.09,43.47-16.2.09Z"/>
        <path class="cls-2" d="M174.04,63.26c-4.78,0-9.04-.99-12.79-2.97-3.75-1.98-6.7-4.71-8.85-8.19-2.16-3.48-3.23-7.41-3.23-11.77s1.06-8.26,3.19-11.69c2.12-3.42,5.06-6.12,8.81-8.1,3.75-1.98,8.01-2.97,12.79-2.97s9.03.99,12.75,2.97c3.72,1.98,6.65,4.68,8.81,8.1,2.15,3.42,3.23,7.32,3.23,11.69s-1.06,8.29-3.19,11.77c-2.12,3.48-5.05,6.21-8.76,8.19s-7.97,2.97-12.75,2.97ZM173.96,48.04c1.47,0,2.76-.31,3.85-.93,1.09-.62,1.93-1.5,2.52-2.66s.89-2.49.89-4.03-.31-2.88-.93-4.03c-.62-1.15-1.46-2.04-2.52-2.66-1.06-.62-2.33-.93-3.81-.93s-2.67.33-3.76.97c-1.09.65-1.95,1.55-2.57,2.7-.62,1.15-.93,2.49-.93,4.03s.31,2.79.93,3.94,1.47,2.04,2.57,2.66c1.09.62,2.35.93,3.76.93Z"/>
      </g>
    </g>
  </g>
</svg>