<?xml version="1.0" encoding="UTF-8"?>
<svg id="_레이어_2" data-name="레이어 2" xmlns="http://www.w3.org/2000/svg" viewBox="0 0 114.02 114.02">
  <defs>
    <style>
      .cls-1 {
        fill: #e61d53;
      }
    </style>
  </defs>
  <g id="_레이어_1-2" data-name="레이어 1">
    <g>
      <path class="cls-1" d="M24.34,52.19l-12.04-30.53C4.61,31.38,0,43.66,0,57.01c0,11.16,3.22,21.56,8.76,30.35l15.57-35.18Z"/>
      <path class="cls-1" d="M71.49,31.35c-.82-.48-1.8-.72-2.94-.72s-2.06.25-2.91.75c-.84.5-1.5,1.2-1.98,2.09-.48.89-.72,1.93-.72,3.11s.24,2.15.72,3.04c.48.89,1.14,1.57,1.98,2.05.84.48,1.81.72,2.91.72s2.13-.24,2.98-.72c.84-.48,1.49-1.16,1.95-2.05.46-.89.68-1.93.68-3.11s-.24-2.22-.72-3.11c-.48-.89-1.13-1.57-1.95-2.05Z"/>
      <path class="cls-1" d="M88.8,99.02c-3.69,0-6.99-.76-9.88-2.29-2.9-1.53-5.17-3.63-6.84-6.33-1.66-2.69-2.5-5.72-2.5-9.09s.82-6.38,2.46-9.03c1.64-2.64,3.91-4.73,6.8-6.26,2.89-1.53,6.19-2.29,9.88-2.29s6.98.76,9.85,2.29c2.87,1.53,5.14,3.61,6.8,6.26,1.66,2.64,2.5,5.65,2.5,9.03,0,.54-.03,1.06-.07,1.58,3.97-7.77,6.22-16.56,6.22-25.88C114.02,25.53,88.5,0,57.01,0,39.8,0,24.39,7.64,13.93,19.69h11.81l4.83,17.75,4.74-17.75h14.15l-8.65,22v.03s-4.55,11.54-4.55,11.54l-3.49,8.88-.95,2.41h14.09l4.83,17.75,4.74-17.75h14.15l-13.2,33.58-11.49.07-13.2-33.47-13.43,34.16c10.16,9.39,23.75,15.14,38.68,15.14,15.71,0,29.94-6.36,40.25-16.64-2.53,1.09-5.35,1.64-8.47,1.64ZM68.62,54.16c-3.69,0-6.99-.76-9.88-2.29-2.9-1.53-5.17-3.63-6.84-6.33-1.66-2.69-2.5-5.72-2.5-9.09s.82-6.38,2.46-9.03c1.64-2.64,3.91-4.73,6.8-6.26,2.89-1.53,6.19-2.29,9.88-2.29s6.98.76,9.85,2.29c2.87,1.53,5.14,3.61,6.8,6.26,1.66,2.64,2.5,5.65,2.5,9.03s-.82,6.41-2.46,9.09c-1.64,2.69-3.9,4.8-6.77,6.33-2.87,1.53-6.15,2.29-9.85,2.29Z"/>
      <path class="cls-1" d="M91.67,76.22c-.82-.48-1.8-.72-2.94-.72s-2.06.25-2.91.75c-.84.5-1.5,1.2-1.98,2.09-.48.89-.72,1.93-.72,3.11s.24,2.15.72,3.04c.48.89,1.14,1.57,1.98,2.05.84.48,1.81.72,2.91.72s2.13-.24,2.98-.72c.84-.48,1.49-1.16,1.95-2.05.46-.89.68-1.93.68-3.11s-.24-2.22-.72-3.11c-.48-.89-1.13-1.57-1.95-2.05Z"/>
    </g>
  </g>
</svg>